HIERARCHY
ROOT Hips
{
	OFFSET	0	0	0
	CHANNELS 6  Xposition Yposition Zposition Xrotation Yrotation Zrotation
	JOINT Spine
	{
		OFFSET	0	7.09727	1.42491
		CHANNELS 3  Xrotation Yrotation Zrotation
		JOINT Spine1
		{
			OFFSET	0	12.1515	-2.16991
			CHANNELS 3  Xrotation Yrotation Zrotation
			JOINT Spine2
			{
				OFFSET	0	9.21125	0.987307
				CHANNELS 3  Xrotation Yrotation Zrotation
				JOINT Spine3
				{
					OFFSET	0	11.0231	3.27656
					CHANNELS 3  Xrotation Yrotation Zrotation
					JOINT Spine4
					{
						OFFSET	0	16.3177	-1.67083
						CHANNELS 3  Xrotation Yrotation Zrotation
						JOINT Neck
						{
							OFFSET	0	7.78996	-5.45731
							CHANNELS 3  Xrotation Yrotation Zrotation
							JOINT Head
							{
								OFFSET	0	9.35229	-2.79918
								CHANNELS 3  Xrotation Yrotation Zrotation
								End Site
								{
									OFFSET	0	19.5075	-0.943909
								}
							}
						}
					}
					JOINT LeftShoulder
					{
						OFFSET	-4.687	19.8329	-9.3523
						CHANNELS 3  Xrotation Yrotation Zrotation
						JOINT LeftArm
						{
							OFFSET	-10.2164	-2.79918	3.59122
							CHANNELS 3  Xrotation Yrotation Zrotation
							JOINT LeftForeArm
							{
								OFFSET	-30.9138	-1.41096	2.20659
								CHANNELS 3  Xrotation Yrotation Zrotation
								JOINT LeftHand
								{
									OFFSET	-25.9068	-1.7903	1.8492
									CHANNELS 3  Xrotation Yrotation Zrotation
									End Site
									{
										OFFSET	-9.45469	-0.653372	0.674821
									}
								}
							}
						}
					}
					JOINT RightShoulder
					{
						OFFSET	4.687	19.8329	-9.3523
						CHANNELS 3  Xrotation Yrotation Zrotation
						JOINT RightArm
						{
							OFFSET	10.2164	-2.79918	3.59122
							CHANNELS 3  Xrotation Yrotation Zrotation
							JOINT RightForeArm
							{
								OFFSET	30.9138	-1.41096	2.20659
								CHANNELS 3  Xrotation Yrotation Zrotation
								JOINT RightHand
								{
									OFFSET	25.9068	-1.7903	1.8492
									CHANNELS 3  Xrotation Yrotation Zrotation
									End Site
									{
										OFFSET	9.45469	-0.653372	0.674821
									}
								}
							}
						}
					}
				}
			}
		}
	}
	JOINT LeftUpLeg
	{
		OFFSET	-9.67573	-3.54864	-0.712453
		CHANNELS 3  Xrotation Yrotation Zrotation
		JOINT LeftLeg
		{
			OFFSET	-2.14499	-42.0303	-0.657025
			CHANNELS 3  Xrotation Yrotation Zrotation
			JOINT LeftFoot
			{
				OFFSET	-2.09953	-38.701	3.32829
				CHANNELS 3  Xrotation Yrotation Zrotation
				JOINT LeftToeBase
				{
					OFFSET	0	-4.7778	-12.6898
					CHANNELS 3  Xrotation Yrotation Zrotation
					End Site
					{
						OFFSET	0	-1.91111	-7.64447
					}
				}
			}
		}
	}
	JOINT RightUpLeg
	{
		OFFSET	9.67573	-3.54864	-0.712453
		CHANNELS 3  Xrotation Yrotation Zrotation
		JOINT RightLeg
		{
			OFFSET	2.14499	-42.0303	-0.657025
			CHANNELS 3  Xrotation Yrotation Zrotation
			JOINT RightFoot
			{
				OFFSET	2.09953	-38.701	3.32829
				CHANNELS 3  Xrotation Yrotation Zrotation
				JOINT RightToeBase
				{
					OFFSET	0	-4.7778	-12.6898
					CHANNELS 3  Xrotation Yrotation Zrotation
					End Site
					{
						OFFSET	0	-1.91111	-7.64447
					}
				}
			}
		}
	}
}
MOTION
Frames: 10
Frame Time: 0.020408
 -119.2 91.369 193.374 0.345963 169.255 8.6324 179.998 -179.967 176.635 178.905 -179.935 174.392 179.773 -179.804 174.392 1.91611 -0.0328479 -3.36497 173.469 179.872 178.886 162.527 166.464 -172.367 174.29 157.709 -175.145 1.30301 -7.25185 2.65798 109.995 -138.904 -153.302 28.7296 -77.3832 26.0565 -0 9.39807 26.0636 179.724 -178.56 -179.474 36.5174 -7.49294 -18.3057 69.4462 69.2205 -66.2766 -0 -17.4718 -12.9098 25.9912 15.6382 -15.2157 152.522 -163.399 179.732 3.02584 -0.0323929 6.17523 2.12238 0 0 176.606 -143.942 165.971 0.0867859 -8.8838 -0.265867 178.137 179.143 -173.147 0.936391 0 0
 -118.635 91.3412 193.631 0.286595 169.52 8.91089 179.999 -179.98 176.608 178.936 -179.961 174.346 179.781 -179.882 174.346 1.84868 -0.0196701 -3.39215 173.683 179.876 178.876 163.112 166.058 -171.964 174.465 157.339 -175.028 1.30449 -7.7301 2.66906 108.726 -136.917 -153.148 26.025 -76.6846 23.392 -0 9.75385 26.8842 179.765 -179.066 -179.551 36.7416 -7.81307 -18.7226 68.9064 69.1028 -65.7739 -0 -16.8572 -12.3091 25.1938 14.8015 -15.6214 152.099 -163.778 179.536 4.09149 0.0218027 4.81119 2.13107 0 0 176.502 -143.231 166.168 0.0154101 -8.87869 -0.318341 177.946 179.227 -173.439 0.898649 0 0
 -117.998 91.2618 193.973 0.0740393 170.306 9.37337 179.999 -179.989 176.553 178.967 -179.978 174.255 179.797 -179.933 174.255 1.81698 -0.0111275 -3.44715 173.813 179.876 178.858 163.476 166.221 -172.537 174.581 157.48 -175.217 1.26147 -6.83462 2.56624 110.059 -136.301 -152.657 24.1245 -76.5729 21.6032 -0 9.95866 27.3515 179.918 -179.216 -179.842 38.1217 -8.6279 -18.768 68.7972 69.0639 -65.635 -0 -15.8793 -11.6888 24.5546 13.8231 -16.0156 151.12 -164.669 179.59 5.21892 0.0227982 2.92328 2.18878 0 0 176.277 -142.575 166.44 179.456 -170.974 179.516 178.141 179.443 -173.829 0.860458 0 0
 -117.385 91.1638 194.404 179.842 8.62741 -170.15 1.45864e-05 0.000238783 -3.49565 179 180 174.174 179.826 179.999 174.174 1.81104 0.000238783 -3.49565 173.886 179.876 178.841 163.653 166.641 -172.916 174.665 158.147 -175.418 1.31289 -5.90966 2.65441 110.52 -136.827 -153.087 21.8413 -76.4798 19.5076 -0 10.1774 27.8386 0.161742 -0.576875 -0.310216 40.3254 -9.87874 -18.8548 66.7178 68.8871 -63.5327 -0 -14.4083 -10.6709 24.0155 12.7946 -16.6909 149.654 -166.32 179.544 6.0583 0.0290685 0.311803 2.23978 0 0 175.936 -141.75 166.634 178.816 -170.398 179.478 178.444 179.542 -174.237 0.819635 0 0
 -116.745 91.0617 194.705 179.633 7.54108 -169.61 0.000714127 0.0114526 -3.56806 179.006 179.977 174.053 179.828 179.932 174.053 1.78926 0.0114526 -3.56806 173.945 179.875 178.817 163.827 167.235 -173.756 174.745 158.892 -175.746 1.3576 -4.37765 2.71502 111.589 -137.95 -153.47 18.4984 -76.2064 16.3208 -0 10.5171 28.14 0.0952687 0.249286 -0.184104 42.3181 -10.913 -19.0578 62.3861 68.2927 -58.9029 -0 -12.8924 -9.65924 23.701 11.9302 -17.0245 148.269 -167.494 179.717 6.82005 0.00162003 -1.89186 2.28457 0 0 175.379 -141.154 166.706 178.473 -169.864 179.244 178.578 179.7 -174.604 0.785973 0 0
 -116.223 90.9809 194.872 179.457 6.37902 -169.13 0.00152979 0.0242096 -3.61568 179.027 179.952 173.974 179.883 179.855 173.974 1.88715 0.0242096 -3.61568 173.753 179.869 178.802 163.246 167.213 -173.421 174.561 158.85 -175.619 1.31361 -2.77062 2.59461 113.237 -139.168 -153.815 16.0322 -76.3172 14.3395 -0 10.8316 28.513 0.185131 0.595704 -0.358865 44.5117 -12.2425 -19.2568 59.6541 67.8766 -55.921 -0 -11.1793 -8.31564 23.4638 11.1558 -17.2249 146.795 -168.572 179.617 7.31189 0.0237549 -3.90791 2.32397 0 0 174.746 -140.614 166.484 178.48 -169.462 179.34 178.495 179.89 -174.978 0.745345 0 0
 -115.433 90.8143 194.836 179.164 4.57019 -168.518 0.00369061 0.0575032 -3.67226 179.044 179.885 173.88 179.991 179.656 173.879 2.12678 0.0575032 -3.67226 173.218 179.855 178.784 161.702 166.574 -172.737 174.009 157.461 -175.15 1.29119 -1.61657 2.52622 116.58 -139.558 -153.935 13.3443 -76.4689 11.7129 -0 11.4522 28.5405 0.337714 0.879633 -0.656285 47.071 -13.9826 -18.8869 56.3411 67.3004 -52.4543 -0 -9.36339 -6.52459 23.1065 9.99341 -17.2064 145.459 -169.352 179.75 8.39356 0.0555737 -5.7143 2.3598 0 0 173.927 -139.912 166.294 178.547 -169.194 179.339 178.363 -179.82 -175.373 0.678795 0 0
 -114.732 90.5894 194.936 178.783 2.62016 -167.914 0.00473043 0.0715079 -3.78474 179.051 179.858 173.692 0.0535391 0.427382 -6.30808 2.27563 0.0715079 -3.78474 172.88 179.844 178.748 160.744 165.725 -172.178 173.611 155.741 -174.685 1.35622 -0.989075 2.63938 118.932 -139.186 -154.315 10.8291 -76.6631 9.1601 -0 12.1611 28.5386 0.435031 1.24231 -0.848075 48.734 -15.5573 -18.5732 53.6441 66.7274 -49.564 -0 -7.72849 -4.97602 22.5682 8.65039 -16.6557 144.481 -169.632 179.761 9.73292 0.0234259 -7.16242 2.39156 0 0 172.998 -139.365 166.138 178.362 -168.956 179.309 178.56 -179.502 -175.813 0.604599 0 0
 -113.88 90.3503 195.094 178.477 0.143971 -167.605 0.00263246 0.0393872 -3.8237 179.034 179.922 173.627 0.0741066 0.235387 -6.37289 2.41978 0.0393872 -3.8237 172.521 179.834 178.736 159.775 164.776 -172.483 173.146 153.425 -174.321 1.38384 -0.670223 2.68571 119.671 -138.36 -154.637 8.52893 -76.7605 6.70774 -0 13.1139 28.7211 0.525779 1.70156 -1.02902 49.6202 -16.8267 -18.3165 51.7299 66.3309 -47.5255 -0 -6.01897 -3.82515 22.248 7.23133 -16.2046 144.393 -168.868 -179.062 11.9563 0.259485 -5.21356 2.3927 0 0 171.996 -138.833 166.431 178.59 -168.725 179.057 178.642 -179.148 -176.236 0.510538 0 0
 -112.85 90.1732 195.19 178.322 -2.06069 -167.245 0.00408306 0.0599619 -3.8955 179.037 179.881 173.507 0.137351 0.358292 -6.49263 2.57357 0.0599619 -3.8955 172.161 179.823 178.714 158.787 163.734 -172.605 172.638 151.011 -173.858 1.39088 -0.798368 2.70243 121.012 -136.886 -154.528 8.01904 -77.9742 6.14627 -0 13.7563 28.6934 0.488524 1.6247 -0.955473 49.5014 -18.2492 -17.8161 50.4581 66.0845 -46.2137 -0 -4.39496 -3.1103 22.2009 5.97601 -15.618 143.513 -168.556 -178.651 12.412 0.332191 -5.82767 2.39841 0 0 171.331 -137.992 166.8 178.591 -168.343 178.849 178.509 -178.775 -177.28 0.405664 0 0
